<?xml version="1.0" standalone="no"?>
<!DOCTYPE svg PUBLIC "-//W3C//DTD SVG 20010904//EN"
 "http://www.w3.org/TR/2001/REC-SVG-20010904/DTD/svg10.dtd">
<svg version="1.0" xmlns="http://www.w3.org/2000/svg"
 width="447.000000pt" height="447.000000pt" viewBox="0 0 447.000000 447.000000"
 preserveAspectRatio="xMidYMid meet">
<metadata>
Created by potrace 1.14, written by Peter Selinger 2001-2017
</metadata>
<g transform="translate(0.000000,447.000000) scale(0.100000,-0.100000)"
fill="#000000" stroke="none">
<path d="M465 3999 c-157 -9 -250 -50 -336 -148 -49 -55 -71 -96 -95 -176 -16
-56 -18 -152 -18 -1438 -1 -1021 2 -1394 10 -1436 17 -83 58 -157 123 -221 65
-64 143 -105 233 -120 70 -12 3706 -10 3745 2 136 41 245 139 301 270 l27 63
3 1603 c2 1528 2 1602 -15 1602 -55 0 -832 1 -850 0 -20 0 0 -45 197 -439 121
-241 220 -441 220 -443 0 -2 -149 -4 -331 -4 l-331 1 -220 440 c-121 242 -221
441 -222 442 -2 2 -382 5 -429 4 -17 -1 6 -51 344 -723 44 -86 76 -159 72
-161 -5 -2 -154 -3 -332 -3 l-324 1 -219 435 c-119 239 -219 438 -220 443 -3
7 -436 13 -443 5 -2 -1 89 -187 202 -413 113 -225 211 -424 218 -440 l13 -30
-331 0 -332 0 -221 440 -220 440 -55 5 c-30 3 -103 2 -164 -1z"/>
</g>
</svg>
